name ./resultDataOpenSim/trcMotMarkerGrf/sub10/grf-05-04.mot
datacolumns 19
datarows 22
range 1.54800000 1.63200000
endheader

                time	     ground_force_vx	     ground_force_vy	     ground_force_vz	     ground_force_px	     ground_force_py	     ground_force_pz	   l_ground_force_vx	   l_ground_force_vy	   l_ground_force_vz	   l_ground_force_px	   l_ground_force_py	   l_ground_force_pz	     ground_torque_x	     ground_torque_y	     ground_torque_z	   l_ground_torque_x	   l_ground_torque_y	   l_ground_torque_z	
          1.54800000	        -15.81988450	        351.04204459	        -25.94466782	          0.88705342	          0.00000000	          0.04102420	          0.00000000	          0.00000000	          0.00000000	          0.00000000	          0.00000000	          0.00000000	          0.00000000	          1.41339355	          0.00000000	          0.00000000	          0.00000000	          0.00000000	
          1.55200000	        -15.23316535	        345.65552527	        -26.28811118	          0.88723542	          0.00000000	          0.04073995	          0.00000000	          0.00000000	          0.00000000	          0.00000000	          0.00000000	          0.00000000	          0.00000000	          1.56880256	          0.00000000	          0.00000000	          0.00000000	          0.00000000	
          1.55600000	        -13.69089458	        340.81127342	        -26.37484512	          0.88718162	          0.00000000	          0.04045318	          0.00000000	          0.00000000	          0.00000000	          0.00000000	          0.00000000	          0.00000000	          0.00000000	          1.70117458	          0.00000000	          0.00000000	          0.00000000	          0.00000000	
          1.56000000	        -11.32041825	        336.44504838	        -26.04843114	          0.88692254	          0.00000000	          0.04017092	          0.00000000	          0.00000000	          0.00000000	          0.00000000	          0.00000000	          0.00000000	          0.00000000	          1.80559063	          0.00000000	          0.00000000	          0.00000000	          0.00000000	
          1.56400000	         -8.50966288	        332.51516391	        -25.26001646	          0.88653138	          0.00000000	          0.03989196	          0.00000000	          0.00000000	          0.00000000	          0.00000000	          0.00000000	          0.00000000	          0.00000000	          1.88378915	          0.00000000	          0.00000000	          0.00000000	          0.00000000	
          1.56800000	         -5.78871266	        329.02456424	        -24.07689245	          0.88612697	          0.00000000	          0.03961267	          0.00000000	          0.00000000	          0.00000000	          0.00000000	          0.00000000	          0.00000000	          0.00000000	          1.94261381	          0.00000000	          0.00000000	          0.00000000	          0.00000000	
          1.57200000	         -3.67286425	        326.01611991	        -22.66302244	          0.88584317	          0.00000000	          0.03933192	          0.00000000	          0.00000000	          0.00000000	          0.00000000	          0.00000000	          0.00000000	          0.00000000	          1.99124269	          0.00000000	          0.00000000	          0.00000000	          0.00000000	
          1.57600000	         -2.51318692	        323.53606003	        -21.23693682	          0.88575769	          0.00000000	          0.03904450	          0.00000000	          0.00000000	          0.00000000	          0.00000000	          0.00000000	          0.00000000	          0.00000000	          2.03831461	          0.00000000	          0.00000000	          0.00000000	          0.00000000	
          1.58000000	         -2.40221870	        321.59947176	        -20.01966580	          0.88589939	          0.00000000	          0.03874047	          0.00000000	          0.00000000	          0.00000000	          0.00000000	          0.00000000	          0.00000000	          0.00000000	          2.08990654	          0.00000000	          0.00000000	          0.00000000	          0.00000000	
          1.58400000	         -3.16059227	        320.18272540	        -19.18540025	          0.88624174	          0.00000000	          0.03841454	          0.00000000	          0.00000000	          0.00000000	          0.00000000	          0.00000000	          0.00000000	          0.00000000	          2.14873361	          0.00000000	          0.00000000	          0.00000000	          0.00000000	
          1.58800000	         -4.39273050	        319.23041598	        -18.82704979	          0.88670770	          0.00000000	          0.03807009	          0.00000000	          0.00000000	          0.00000000	          0.00000000	          0.00000000	          0.00000000	          0.00000000	          2.21435094	          0.00000000	          0.00000000	          0.00000000	          0.00000000	
          1.59200000	         -5.58928049	        318.66590324	        -18.94381250	          0.88720144	          0.00000000	          0.03771721	          0.00000000	          0.00000000	          0.00000000	          0.00000000	          0.00000000	          0.00000000	          0.00000000	          2.28388145	          0.00000000	          0.00000000	          0.00000000	          0.00000000	
          1.59600000	         -6.26226253	        318.40143656	        -19.45121675	          0.88759389	          0.00000000	          0.03736354	          0.00000000	          0.00000000	          0.00000000	          0.00000000	          0.00000000	          0.00000000	          0.00000000	          2.35292222	          0.00000000	          0.00000000	          0.00000000	          0.00000000	
          1.60000000	         -6.07852845	        318.34894909	        -20.20804017	          0.88778354	          0.00000000	          0.03700976	          0.00000000	          0.00000000	          0.00000000	          0.00000000	          0.00000000	          0.00000000	          0.00000000	          2.41658081	          0.00000000	          0.00000000	          0.00000000	          0.00000000	
          1.60400000	         -4.94871152	        318.44386018	        -21.04828867	          0.88774490	          0.00000000	          0.03666285	          0.00000000	          0.00000000	          0.00000000	          0.00000000	          0.00000000	          0.00000000	          0.00000000	          2.47070808	          0.00000000	          0.00000000	          0.00000000	          0.00000000	
          1.60800000	         -3.04619135	        318.68064236	        -21.81191916	          0.88750968	          0.00000000	          0.03632866	          0.00000000	          0.00000000	          0.00000000	          0.00000000	          0.00000000	          0.00000000	          0.00000000	          2.51317524	          0.00000000	          0.00000000	          0.00000000	          0.00000000	
          1.61200000	         -0.75075474	        319.13568026	        -22.37071537	          0.88714784	          0.00000000	          0.03600520	          0.00000000	          0.00000000	          0.00000000	          0.00000000	          0.00000000	          0.00000000	          0.00000000	          2.54473391	          0.00000000	          0.00000000	          0.00000000	          0.00000000	
          1.61600000	          1.46486138	        319.96821219	        -22.64435573	          0.88677104	          0.00000000	          0.03568035	          0.00000000	          0.00000000	          0.00000000	          0.00000000	          0.00000000	          0.00000000	          0.00000000	          2.56896473	          0.00000000	          0.00000000	          0.00000000	          0.00000000	
          1.62000000	          3.17532470	        321.40386845	        -22.60917907	          0.88648019	          0.00000000	          0.03533807	          0.00000000	          0.00000000	          0.00000000	          0.00000000	          0.00000000	          0.00000000	          0.00000000	          2.59120707	          0.00000000	          0.00000000	          0.00000000	          0.00000000	
          1.62400000	          4.12921918	        323.69042345	        -22.29937836	          0.88634743	          0.00000000	          0.03496731	          0.00000000	          0.00000000	          0.00000000	          0.00000000	          0.00000000	          0.00000000	          0.00000000	          2.61693851	          0.00000000	          0.00000000	          0.00000000	          0.00000000	
          1.62800000	          4.32036298	        327.03771058	        -21.79645499	          0.88638619	          0.00000000	          0.03456727	          0.00000000	          0.00000000	          0.00000000	          0.00000000	          0.00000000	          0.00000000	          0.00000000	          2.65039490	          0.00000000	          0.00000000	          0.00000000	          0.00000000	
          1.63200000	          3.98629375	        331.57506500	        -21.20974855	          0.88654751	          0.00000000	          0.03414942	          0.00000000	          0.00000000	          0.00000000	          0.00000000	          0.00000000	          0.00000000	          0.00000000	          2.69403789	          0.00000000	          0.00000000	          0.00000000	          0.00000000	
